<?xml version="1.0" encoding="UTF-8" standalone="no"?>
<svg
   xmlns:dc="http://purl.org/dc/elements/1.1/"
   xmlns:cc="http://creativecommons.org/ns#"
   xmlns:rdf="http://www.w3.org/1999/02/22-rdf-syntax-ns#"
   xmlns:svg="http://www.w3.org/2000/svg"
   xmlns="http://www.w3.org/2000/svg"
   viewBox="0 0 406.66666 90.373337"
   height="90.373337"
   width="406.66666"
   xml:space="preserve"
   id="svg2"
   version="1.1"><metadata
     id="metadata8"><rdf:RDF><cc:Work
         rdf:about=""><dc:format>image/svg+xml</dc:format><dc:type
           rdf:resource="http://purl.org/dc/dcmitype/StillImage" /></cc:Work></rdf:RDF></metadata><defs
     id="defs6" /><g
     transform="matrix(1.3333333,0,0,-1.3333333,0,90.373333)"
     id="g10"><g
       transform="scale(0.1)"
       id="g12"><path
         id="path14"
         style="fill:#44494c;fill-opacity:1;fill-rule:nonzero;stroke:none"
         d="m 2440.14,162.676 c 30.53,9.015 67.96,9.472 92.5,9.472 h 7.31 v -3.359 c 0,-27.859 -9.66,-57.676 -27.42,-79.2577 -14.78,-17.9493 -35.31,-30.0782 -60.59,-30.0782 -19.49,0 -34.29,5.6641 -44.46,14.2696 -11.36,9.5976 -17.08,22.957 -17.08,35.9843 0,29.434 22.17,44.844 49.74,52.969 z M 2357.23,29.9492 C 2380.3,10.0977 2412.32,0 2444.19,0 c 27.17,0 51.5,8.26172 71.54,21.5234 9.81,6.4844 18.58,14.1797 26.15,22.6954 V 19.1406 7.71484 h 11.42 41.97 11.42 V 19.1406 225.957 c 0,43.406 -11.88,77.012 -34.47,100.098 -22.82,23.285 -55.98,35.289 -98.33,35.289 -22.65,0 -46.05,-3.883 -67.25,-10.637 -21.6,-6.875 -40.97,-16.801 -55.04,-28.695 l -7.38,-6.25 4.97,-8.289 20.02,-33.41 6.4,-10.665 10.05,7.325 c 12.46,9.062 26.48,16.3 41.29,21.25 14.26,4.757 29.29,7.343 44.35,7.343 21.44,0 39.74,-5 51.73,-17.5 10.29,-10.742 16.51,-27.539 16.89,-52.148 h -7.93 c -31.78,0 -82.53,-1.672 -125.86,-17.129 -45.82,-16.348 -83.12,-47.527 -83.12,-106.699 0,-32.6877 13.5,-58.0744 34.22,-75.8908 z M 2090.38,7.71484 h -55.32 V 482.094 h 66.74 V 470.68 230.313 h 35.34 l 93.42,118.949 3.42,4.375 h 5.53 52.95 23.78 l -14.9,-18.563 -108.16,-134.644 120.27,-174.8245 12.3,-17.89066 h -21.67 -52.94 -6.05 l -3.4,5.08986 -104.42,156.1333 H 2101.8 V 19.1406 7.71484 h -11.42 z M 1711.27,265.488 c -20.43,-20.84 -33.01,-49.961 -33.01,-83.203 0,-34.414 12.52,-64.121 32.85,-85.2733 20.7,-21.5429 49.57,-34.3359 81.62,-34.3359 32.13,0 61.21,12.832 82.06,34.414 20.43,21.1722 33.07,50.8402 33.07,85.1952 0,33.184 -12.7,62.266 -33.24,83.117 -20.85,21.168 -49.85,33.914 -81.89,33.914 -31.96,0.008 -60.77,-12.714 -81.46,-33.828 v 0 z M 1662.89,52.8516 c -32.6,32.5586 -52.67,77.8324 -52.67,129.4334 0,50.703 20.09,95.195 52.74,127.18 33.06,32.39 78.93,51.879 129.78,51.879 50.88,0 96.95,-19.504 130.16,-51.918 32.78,-32.004 53.01,-76.477 53.01,-127.141 0,-51.562 -20.19,-96.8045 -52.9,-129.3553 C 1889.79,19.8828 1843.68,0 1792.74,0 1741.85,0 1695.95,19.8438 1662.89,52.8516 Z M 1505.73,20.293 c -18.13,12.8515 -32.38,35.5273 -32.38,75.2734 V 470.68 482.094 h 11.43 43.89 11.43 V 470.68 105.215 c 0,-17.6564 3.56,-27.2267 8.62,-32.1486 4.39,-4.2578 10.78,-5.2539 16.76,-5.2539 1.5,0 3.39,0 4.19,0.0391 1.36,0.0586 2.83,0.1836 4.3,0.4297 l 13.26,2.1875 V 57.0313 17.8516 8.19531 l -9.59,-1.58203 c -2.05,-0.34375 -4.53,-0.68359 -7.67,-0.96875 -3.25,-0.29297 -6.73,-0.49609 -10.3,-0.49609 -14.86,0 -35.98,2.42969 -53.94,15.14456 v 0 z m -307.17,257.695 c -14.23,-12.773 -25.17,-30.488 -31,-52.812 h 177.72 c -2.76,23.191 -10.9,41.015 -22.54,53.633 -14.64,15.898 -35.15,23.73 -57.49,23.73 -25.25,0 -48.71,-8.418 -66.69,-24.551 v 0 z M 1145.83,51.3086 c -32.13,31.8359 -51.46,76.5544 -51.46,129.0434 0,54.316 18.24,98.32 47.71,129.414 31.61,33.336 75.96,51.578 124.46,51.578 46.09,0 81.62,-16.914 106.33,-44.067 27.02,-29.699 40.68,-71.425 40.68,-116.359 0,-3.563 -0.18,-7.539 -0.44,-11.641 -0.21,-3.117 -0.57,-7.187 -0.94,-11.23 l -0.95,-10.399 h -10.38 -237.15 c 2.96,-30.761 14.61,-55.187 31.81,-72.648 20.85,-21.1719 50.11,-32.3242 82.02,-32.3242 16.22,0 32.73,3.3594 48.24,9.3945 15.84,6.1836 30.61,15.1485 42.91,26.1914 l 10.29,9.2383 7.11,-11.8555 20.01,-33.4062 4.81,-8 -6.9,-6.2695 C 1387.83,33.2617 1367.28,21.2891 1345.14,13.0078 1322.85,4.66797 1298.93,0.0117188 1276.23,0.0117188 1224.29,0 1178.52,18.9063 1145.83,51.3086 Z M 944.375,7.71484 h -55.566 l -2.832,7.32426 -125.254,323.0699 -6.016,15.528 h 16.633 47.129 7.859 l 2.805,-7.407 89.734,-237.011 0.051,-0.137 c 0.418,-1.141 0.816,-2.324 1.227,-3.535 0.414,1.211 0.832,2.394 1.25,3.535 l 0.043,0.137 89.742,237.011 2.8,7.407 h 7.86 46.48 16.6 L 1078.98,338.16 955.02,15.0781 952.195,7.71484 h -7.82 v 0 z M 556.809,162.676 c -27.571,-8.125 -49.739,-23.535 -49.739,-52.969 0,-13.0273 5.723,-26.3867 17.078,-35.9765 10.168,-8.6016 24.973,-14.2774 44.457,-14.2774 25.282,0 45.809,12.1289 60.594,30.0782 17.766,21.5817 27.422,51.3987 27.422,79.2577 v 3.359 h -7.305 c -24.55,0 -61.972,-0.457 -92.507,-9.472 z M 473.895,29.9492 c -20.704,17.8242 -34.207,43.2031 -34.207,75.8908 0,59.18 37.292,90.351 83.117,106.699 43.328,15.469 94.07,17.129 125.867,17.129 h 7.93 c -0.379,24.609 -6.614,41.406 -16.907,52.148 -11.992,12.5 -30.269,17.508 -51.715,17.508 -15.082,0 -30.097,-2.586 -44.359,-7.351 -14.812,-4.95 -28.836,-12.188 -41.277,-21.25 l -10.071,-7.325 -6.394,10.672 -20.012,33.41 -4.976,8.293 7.379,6.239 c 14.085,11.906 33.441,21.82 55.043,28.703 21.199,6.75 44.609,10.633 67.246,10.633 42.363,0 75.527,-12 98.32,-35.293 22.605,-23.086 34.48,-56.68 34.48,-100.098 V 19.1406 7.72656 H 711.941 669.973 658.555 V 19.1406 44.2188 C 650.984,35.7031 642.207,28.0078 632.41,21.5234 612.355,8.26172 588.027,0.0195313 560.859,0.0195313 528.992,0 496.98,10.0977 473.895,29.9492 Z M 296.152,7.71484 H 240.828 V 353.637 h 66.098 v -11.418 -35.422 c 6.402,8.808 13.672,16.789 21.719,23.652 19.199,16.364 42.703,26.403 69.507,26.403 3.274,0 6.848,-0.2 10.453,-0.602 3.36,-0.367 6.676,-0.93 9.708,-1.684 l 8.699,-2.164 V 343.5 300.469 284.688 l -14.992,4.941 c -0.133,0.051 -1.629,0.187 -3.829,0.359 -2.617,0.207 -5.789,0.344 -8.738,0.344 -28.191,0 -49.172,-14.141 -63.808,-34.797 l -0.02,0.012 C 316.27,228.203 307.559,189.656 307.559,155.957 V 19.1406 7.72656 H 296.152 Z M 90.293,26.7969 C 63.8477,45.2344 42.6172,78.1836 42.6172,136.68 V 291.621 H 11.4258 0 v 11.414 36.61 11.421 h 11.4258 31.8359 v 80.426 11.418 h 11.4141 43.2656 11.4136 v -11.418 -80.426 h 70.579 11.414 v -11.421 -36.61 -11.414 H 179.934 109.355 V 141.184 c 0,-27.161 6.68,-44.4457 16.055,-55.3246 13.485,-15.6641 33.301,-18.6914 46.133,-18.6914 2.207,0 4.426,0 6.172,0.1172 h 0.051 c 1.961,0.1367 4.004,0.3828 6.172,0.8593 l 13.867,3.0664 V 57.043 17.8633 8.20313 l -9.582,-1.58204 c -2.5,-0.41015 -5.801,-0.82031 -9.715,-1.09375 -3.32,-0.22265 -6.992,-0.37109 -10.844,-0.37109 -20.281,-0.00781 -51.16,3.37109 -77.371,21.64065 v 0" /><path
         id="path16"
         style="fill:#1ba8e2;fill-opacity:1;fill-rule:nonzero;stroke:none"
         d="m 2859.51,319.871 c 0.38,0.227 0.76,0.449 1.14,0.695 -17.41,52.032 55,139.965 189.35,287.032 -108.6,-13.328 -192.62,-40.899 -252.03,-82.703 5.78,-85.227 26.29,-153.571 61.54,-205.024 v 0" /><path
         id="path18"
         style="fill:#1b91c7;fill-opacity:1;fill-rule:nonzero;stroke:none"
         d="m 2859.51,319.871 c 0.38,0.227 0.76,0.449 1.14,0.695 -0.58,1.75 -1.06,3.555 -1.44,5.403 -16.96,64.437 -23.83,138.89 -20.62,223.347 -14.62,-7.515 -28.16,-15.66 -40.62,-24.421 5.78,-85.227 26.29,-153.571 61.54,-205.024 v 0" /><path
         id="path20"
         style="fill:#1da8e7;fill-opacity:1;fill-rule:nonzero;stroke:none"
         d="m 2904.21,245.273 c 28.7,-14.687 52.46,-22.265 73.52,-18.632 -141.54,55.476 -200.29,205.882 -176.25,451.203 -50.85,-9.996 -92.11,-33.25 -120.85,-72.008 -25.03,-33.766 -17.01,-76.684 3.52,-133.957 2.75,-7.684 6.06,-49.074 -11.07,-64.457 -6.31,-5.649 -16.43,-1.184 -25.19,4.531 -30.09,17.094 -55.1,16.93 -75.03,-0.504 -54.92,9.227 -94.71,14.258 -119.34,15.11 35.15,-11.075 75.76,-22.454 121.35,-35.754 19.49,-5.676 36.19,-19.043 49.36,-39.278 26.94,-41.41 103.29,-63.871 177.25,-74.535 27.75,-3.996 66.13,-12.988 102.73,-31.719" /></g></g></svg>